<mxfile host="app.diagrams.net" modified="2024-04-14T12:36:44.784Z" agent="Mozilla/5.0 (Windows NT 10.0; Win64; x64; rv:124.0) Gecko/20100101 Firefox/124.0" etag="rPqd0vcPdwH7gr73MEQG" version="24.2.5" type="device">
  <diagram name="Page-1" id="Y5mGBcoB7vXFcONsRPIJ">
    <mxGraphModel dx="1379" dy="621" grid="1" gridSize="10" guides="1" tooltips="1" connect="1" arrows="1" fold="1" page="1" pageScale="1" pageWidth="850" pageHeight="1100" math="0" shadow="0">
      <root>
        <mxCell id="0" />
        <mxCell id="1" parent="0" />
        <mxCell id="gGDKsDPiHbB0FrDxyziw-1" value="NOP" style="ellipse;whiteSpace=wrap;html=1;aspect=fixed;" parent="1" vertex="1">
          <mxGeometry x="295" y="100" width="80" height="80" as="geometry" />
        </mxCell>
        <mxCell id="gGDKsDPiHbB0FrDxyziw-2" value="DIV" style="ellipse;whiteSpace=wrap;html=1;aspect=fixed;" parent="1" vertex="1">
          <mxGeometry x="215" y="230" width="80" height="80" as="geometry" />
        </mxCell>
        <mxCell id="gGDKsDPiHbB0FrDxyziw-3" value="MUL" style="ellipse;whiteSpace=wrap;html=1;aspect=fixed;" parent="1" vertex="1">
          <mxGeometry x="95" y="230" width="80" height="80" as="geometry" />
        </mxCell>
        <mxCell id="gGDKsDPiHbB0FrDxyziw-4" value="" style="curved=1;endArrow=classic;html=1;rounded=0;exitX=0;exitY=0.5;exitDx=0;exitDy=0;entryX=0.5;entryY=0;entryDx=0;entryDy=0;" parent="1" source="gGDKsDPiHbB0FrDxyziw-1" target="gGDKsDPiHbB0FrDxyziw-3" edge="1">
          <mxGeometry width="50" height="50" relative="1" as="geometry">
            <mxPoint x="275" y="330" as="sourcePoint" />
            <mxPoint x="325" y="280" as="targetPoint" />
            <Array as="points">
              <mxPoint x="185" y="140" />
            </Array>
          </mxGeometry>
        </mxCell>
        <mxCell id="gGDKsDPiHbB0FrDxyziw-5" value="opcode==MUL / cmul=1" style="edgeLabel;html=1;align=center;verticalAlign=middle;resizable=0;points=[];" parent="gGDKsDPiHbB0FrDxyziw-4" vertex="1" connectable="0">
          <mxGeometry x="-0.23" y="13" relative="1" as="geometry">
            <mxPoint as="offset" />
          </mxGeometry>
        </mxCell>
        <mxCell id="gGDKsDPiHbB0FrDxyziw-6" value="" style="curved=1;endArrow=classic;html=1;rounded=0;exitX=0;exitY=1;exitDx=0;exitDy=0;entryX=0.5;entryY=0;entryDx=0;entryDy=0;" parent="1" source="gGDKsDPiHbB0FrDxyziw-1" target="gGDKsDPiHbB0FrDxyziw-2" edge="1">
          <mxGeometry width="50" height="50" relative="1" as="geometry">
            <mxPoint x="275" y="330" as="sourcePoint" />
            <mxPoint x="325" y="280" as="targetPoint" />
            <Array as="points">
              <mxPoint x="255" y="180" />
            </Array>
          </mxGeometry>
        </mxCell>
        <mxCell id="gGDKsDPiHbB0FrDxyziw-7" value="opcode==DIV / cdiv=1" style="edgeLabel;html=1;align=center;verticalAlign=middle;resizable=0;points=[];" parent="gGDKsDPiHbB0FrDxyziw-6" vertex="1" connectable="0">
          <mxGeometry x="-0.2554" y="5" relative="1" as="geometry">
            <mxPoint y="10" as="offset" />
          </mxGeometry>
        </mxCell>
        <mxCell id="gGDKsDPiHbB0FrDxyziw-13" style="edgeStyle=orthogonalEdgeStyle;rounded=0;orthogonalLoop=1;jettySize=auto;html=1;exitX=1;exitY=0.5;exitDx=0;exitDy=0;" parent="1" source="gGDKsDPiHbB0FrDxyziw-8" target="gGDKsDPiHbB0FrDxyziw-9" edge="1">
          <mxGeometry relative="1" as="geometry" />
        </mxCell>
        <mxCell id="gGDKsDPiHbB0FrDxyziw-14" value="rd2=1" style="edgeLabel;html=1;align=center;verticalAlign=middle;resizable=0;points=[];" parent="gGDKsDPiHbB0FrDxyziw-13" vertex="1" connectable="0">
          <mxGeometry x="-0.3795" y="-2" relative="1" as="geometry">
            <mxPoint x="-1" y="-13" as="offset" />
          </mxGeometry>
        </mxCell>
        <mxCell id="gGDKsDPiHbB0FrDxyziw-8" value="RD1" style="ellipse;whiteSpace=wrap;html=1;aspect=fixed;" parent="1" vertex="1">
          <mxGeometry x="335" y="230" width="80" height="80" as="geometry" />
        </mxCell>
        <mxCell id="gGDKsDPiHbB0FrDxyziw-9" value="RD2" style="ellipse;whiteSpace=wrap;html=1;aspect=fixed;" parent="1" vertex="1">
          <mxGeometry x="445" y="230" width="80" height="80" as="geometry" />
        </mxCell>
        <mxCell id="gGDKsDPiHbB0FrDxyziw-10" value="" style="curved=1;endArrow=classic;html=1;rounded=0;exitX=1;exitY=0.5;exitDx=0;exitDy=0;entryX=0.5;entryY=0;entryDx=0;entryDy=0;" parent="1" source="gGDKsDPiHbB0FrDxyziw-1" target="gGDKsDPiHbB0FrDxyziw-8" edge="1">
          <mxGeometry width="50" height="50" relative="1" as="geometry">
            <mxPoint x="365" y="230" as="sourcePoint" />
            <mxPoint x="415" y="180" as="targetPoint" />
            <Array as="points">
              <mxPoint x="425" y="180" />
            </Array>
          </mxGeometry>
        </mxCell>
        <mxCell id="gGDKsDPiHbB0FrDxyziw-12" value="&lt;div&gt;(opcode!=MUL &amp;amp; &lt;br&gt;&lt;/div&gt;&lt;div&gt;opcode!=DIV) / rd1=1&lt;br&gt;&lt;/div&gt;" style="edgeLabel;html=1;align=center;verticalAlign=middle;resizable=0;points=[];" parent="gGDKsDPiHbB0FrDxyziw-10" vertex="1" connectable="0">
          <mxGeometry x="-0.35" y="-8" relative="1" as="geometry">
            <mxPoint y="24" as="offset" />
          </mxGeometry>
        </mxCell>
        <mxCell id="gGDKsDPiHbB0FrDxyziw-15" value="NEG" style="ellipse;whiteSpace=wrap;html=1;aspect=fixed;" parent="1" vertex="1">
          <mxGeometry x="725" y="140" width="80" height="80" as="geometry" />
        </mxCell>
        <mxCell id="gGDKsDPiHbB0FrDxyziw-16" value="OR" style="ellipse;whiteSpace=wrap;html=1;aspect=fixed;" parent="1" vertex="1">
          <mxGeometry x="665" y="230" width="80" height="80" as="geometry" />
        </mxCell>
        <mxCell id="gGDKsDPiHbB0FrDxyziw-17" value="AND" style="ellipse;whiteSpace=wrap;html=1;aspect=fixed;" parent="1" vertex="1">
          <mxGeometry x="615" y="320" width="80" height="80" as="geometry" />
        </mxCell>
        <mxCell id="gGDKsDPiHbB0FrDxyziw-18" value="SHL" style="ellipse;whiteSpace=wrap;html=1;aspect=fixed;" parent="1" vertex="1">
          <mxGeometry x="551" y="410" width="80" height="80" as="geometry" />
        </mxCell>
        <mxCell id="gGDKsDPiHbB0FrDxyziw-19" value="SHR" style="ellipse;whiteSpace=wrap;html=1;aspect=fixed;" parent="1" vertex="1">
          <mxGeometry x="455" y="410" width="80" height="80" as="geometry" />
        </mxCell>
        <mxCell id="gGDKsDPiHbB0FrDxyziw-20" value="SUB" style="ellipse;whiteSpace=wrap;html=1;aspect=fixed;" parent="1" vertex="1">
          <mxGeometry x="360" y="410" width="80" height="80" as="geometry" />
        </mxCell>
        <mxCell id="gGDKsDPiHbB0FrDxyziw-21" value="ADD" style="ellipse;whiteSpace=wrap;html=1;aspect=fixed;" parent="1" vertex="1">
          <mxGeometry x="265" y="410" width="80" height="80" as="geometry" />
        </mxCell>
        <mxCell id="gGDKsDPiHbB0FrDxyziw-22" value="" style="curved=1;endArrow=classic;html=1;rounded=0;exitX=0.5;exitY=0;exitDx=0;exitDy=0;entryX=1;entryY=0;entryDx=0;entryDy=0;" parent="1" source="gGDKsDPiHbB0FrDxyziw-9" target="gGDKsDPiHbB0FrDxyziw-1" edge="1">
          <mxGeometry width="50" height="50" relative="1" as="geometry">
            <mxPoint x="395" y="220" as="sourcePoint" />
            <mxPoint x="445" y="170" as="targetPoint" />
            <Array as="points">
              <mxPoint x="525" y="110" />
            </Array>
          </mxGeometry>
        </mxCell>
        <mxCell id="gGDKsDPiHbB0FrDxyziw-23" value="&lt;div&gt;opcode==NOP | &lt;br&gt;&lt;/div&gt;&lt;div&gt;opcode==RD1 | &lt;br&gt;&lt;/div&gt;&lt;div&gt;opcode==RD2 |&lt;/div&gt;&lt;div&gt;opcode==MUL |&lt;/div&gt;&lt;div&gt;opcode==DIV&lt;br&gt;&lt;/div&gt;" style="edgeLabel;html=1;align=center;verticalAlign=middle;resizable=0;points=[];" parent="gGDKsDPiHbB0FrDxyziw-22" vertex="1" connectable="0">
          <mxGeometry x="-0.515" y="23" relative="1" as="geometry">
            <mxPoint x="-10" y="-16" as="offset" />
          </mxGeometry>
        </mxCell>
        <mxCell id="gGDKsDPiHbB0FrDxyziw-24" value="" style="ellipse;whiteSpace=wrap;html=1;aspect=fixed;" parent="1" vertex="1">
          <mxGeometry x="325" y="550" width="20" height="20" as="geometry" />
        </mxCell>
        <mxCell id="gGDKsDPiHbB0FrDxyziw-25" value="" style="curved=1;endArrow=classic;html=1;rounded=0;exitX=0;exitY=1;exitDx=0;exitDy=0;entryX=0.5;entryY=0;entryDx=0;entryDy=0;" parent="1" source="gGDKsDPiHbB0FrDxyziw-9" target="gGDKsDPiHbB0FrDxyziw-21" edge="1">
          <mxGeometry width="50" height="50" relative="1" as="geometry">
            <mxPoint x="575" y="390" as="sourcePoint" />
            <mxPoint x="625" y="340" as="targetPoint" />
            <Array as="points">
              <mxPoint x="435" y="330" />
              <mxPoint x="325" y="370" />
            </Array>
          </mxGeometry>
        </mxCell>
        <mxCell id="gGDKsDPiHbB0FrDxyziw-43" value="opcode==ADD" style="edgeLabel;html=1;align=center;verticalAlign=middle;resizable=0;points=[];" parent="gGDKsDPiHbB0FrDxyziw-25" vertex="1" connectable="0">
          <mxGeometry x="0.1753" y="-4" relative="1" as="geometry">
            <mxPoint x="41" y="-20" as="offset" />
          </mxGeometry>
        </mxCell>
        <mxCell id="gGDKsDPiHbB0FrDxyziw-26" value="" style="curved=1;endArrow=classic;html=1;rounded=0;exitX=0.266;exitY=0.947;exitDx=0;exitDy=0;entryX=0.5;entryY=0;entryDx=0;entryDy=0;exitPerimeter=0;" parent="1" source="gGDKsDPiHbB0FrDxyziw-9" target="gGDKsDPiHbB0FrDxyziw-20" edge="1">
          <mxGeometry width="50" height="50" relative="1" as="geometry">
            <mxPoint x="575" y="390" as="sourcePoint" />
            <mxPoint x="625" y="340" as="targetPoint" />
            <Array as="points">
              <mxPoint x="465" y="360" />
            </Array>
          </mxGeometry>
        </mxCell>
        <mxCell id="gGDKsDPiHbB0FrDxyziw-44" value="opcode==SUB" style="edgeLabel;html=1;align=center;verticalAlign=middle;resizable=0;points=[];" parent="gGDKsDPiHbB0FrDxyziw-26" vertex="1" connectable="0">
          <mxGeometry x="0.1468" y="-3" relative="1" as="geometry">
            <mxPoint x="-3" y="-9" as="offset" />
          </mxGeometry>
        </mxCell>
        <mxCell id="gGDKsDPiHbB0FrDxyziw-27" value="" style="curved=1;endArrow=classic;html=1;rounded=0;exitX=0.424;exitY=0.998;exitDx=0;exitDy=0;entryX=0.5;entryY=0;entryDx=0;entryDy=0;exitPerimeter=0;" parent="1" source="gGDKsDPiHbB0FrDxyziw-9" target="gGDKsDPiHbB0FrDxyziw-19" edge="1">
          <mxGeometry width="50" height="50" relative="1" as="geometry">
            <mxPoint x="405" y="340" as="sourcePoint" />
            <mxPoint x="455" y="290" as="targetPoint" />
            <Array as="points">
              <mxPoint x="505" y="350" />
            </Array>
          </mxGeometry>
        </mxCell>
        <mxCell id="gGDKsDPiHbB0FrDxyziw-45" value="opcode==SHR" style="edgeLabel;html=1;align=center;verticalAlign=middle;resizable=0;points=[];" parent="gGDKsDPiHbB0FrDxyziw-27" vertex="1" connectable="0">
          <mxGeometry x="0.4908" y="-1" relative="1" as="geometry">
            <mxPoint as="offset" />
          </mxGeometry>
        </mxCell>
        <mxCell id="gGDKsDPiHbB0FrDxyziw-28" value="" style="curved=1;endArrow=classic;html=1;rounded=0;exitX=0.649;exitY=0.976;exitDx=0;exitDy=0;entryX=0;entryY=0;entryDx=0;entryDy=0;exitPerimeter=0;" parent="1" source="gGDKsDPiHbB0FrDxyziw-9" target="gGDKsDPiHbB0FrDxyziw-18" edge="1">
          <mxGeometry width="50" height="50" relative="1" as="geometry">
            <mxPoint x="405" y="310" as="sourcePoint" />
            <mxPoint x="455" y="260" as="targetPoint" />
            <Array as="points">
              <mxPoint x="525" y="340" />
            </Array>
          </mxGeometry>
        </mxCell>
        <mxCell id="gGDKsDPiHbB0FrDxyziw-46" value="opcode==SHL" style="edgeLabel;html=1;align=center;verticalAlign=middle;resizable=0;points=[];" parent="gGDKsDPiHbB0FrDxyziw-28" vertex="1" connectable="0">
          <mxGeometry x="-0.2237" y="-2" relative="1" as="geometry">
            <mxPoint x="18" y="11" as="offset" />
          </mxGeometry>
        </mxCell>
        <mxCell id="gGDKsDPiHbB0FrDxyziw-30" value="" style="curved=1;endArrow=classic;html=1;rounded=0;exitX=1;exitY=1;exitDx=0;exitDy=0;entryX=0;entryY=0.5;entryDx=0;entryDy=0;" parent="1" source="gGDKsDPiHbB0FrDxyziw-9" target="gGDKsDPiHbB0FrDxyziw-17" edge="1">
          <mxGeometry width="50" height="50" relative="1" as="geometry">
            <mxPoint x="445" y="380" as="sourcePoint" />
            <mxPoint x="495" y="330" as="targetPoint" />
            <Array as="points">
              <mxPoint x="565" y="340" />
            </Array>
          </mxGeometry>
        </mxCell>
        <mxCell id="gGDKsDPiHbB0FrDxyziw-47" value="opcode==AND" style="edgeLabel;html=1;align=center;verticalAlign=middle;resizable=0;points=[];" parent="gGDKsDPiHbB0FrDxyziw-30" vertex="1" connectable="0">
          <mxGeometry x="-0.2715" y="5" relative="1" as="geometry">
            <mxPoint as="offset" />
          </mxGeometry>
        </mxCell>
        <mxCell id="gGDKsDPiHbB0FrDxyziw-31" value="" style="curved=1;endArrow=classic;html=1;rounded=0;exitX=1;exitY=0.5;exitDx=0;exitDy=0;entryX=0;entryY=0.5;entryDx=0;entryDy=0;" parent="1" source="gGDKsDPiHbB0FrDxyziw-9" target="gGDKsDPiHbB0FrDxyziw-16" edge="1">
          <mxGeometry width="50" height="50" relative="1" as="geometry">
            <mxPoint x="445" y="380" as="sourcePoint" />
            <mxPoint x="495" y="330" as="targetPoint" />
            <Array as="points">
              <mxPoint x="575" y="240" />
            </Array>
          </mxGeometry>
        </mxCell>
        <mxCell id="gGDKsDPiHbB0FrDxyziw-48" value="opcode==OR" style="edgeLabel;html=1;align=center;verticalAlign=middle;resizable=0;points=[];" parent="gGDKsDPiHbB0FrDxyziw-31" vertex="1" connectable="0">
          <mxGeometry x="0.2865" y="-7" relative="1" as="geometry">
            <mxPoint x="-20" y="-13" as="offset" />
          </mxGeometry>
        </mxCell>
        <mxCell id="gGDKsDPiHbB0FrDxyziw-32" value="" style="curved=1;endArrow=classic;html=1;rounded=0;exitX=1;exitY=0;exitDx=0;exitDy=0;entryX=0;entryY=0.5;entryDx=0;entryDy=0;" parent="1" source="gGDKsDPiHbB0FrDxyziw-9" target="gGDKsDPiHbB0FrDxyziw-15" edge="1">
          <mxGeometry width="50" height="50" relative="1" as="geometry">
            <mxPoint x="445" y="380" as="sourcePoint" />
            <mxPoint x="495" y="330" as="targetPoint" />
            <Array as="points">
              <mxPoint x="565" y="180" />
            </Array>
          </mxGeometry>
        </mxCell>
        <mxCell id="gGDKsDPiHbB0FrDxyziw-49" value="opcode==NEG" style="edgeLabel;html=1;align=center;verticalAlign=middle;resizable=0;points=[];" parent="gGDKsDPiHbB0FrDxyziw-32" vertex="1" connectable="0">
          <mxGeometry x="0.2093" relative="1" as="geometry">
            <mxPoint x="-14" y="-5" as="offset" />
          </mxGeometry>
        </mxCell>
        <mxCell id="gGDKsDPiHbB0FrDxyziw-33" value="" style="curved=1;endArrow=classic;html=1;rounded=0;exitX=0.5;exitY=1;exitDx=0;exitDy=0;entryX=0.055;entryY=0.286;entryDx=0;entryDy=0;entryPerimeter=0;" parent="1" source="gGDKsDPiHbB0FrDxyziw-21" target="gGDKsDPiHbB0FrDxyziw-24" edge="1">
          <mxGeometry width="50" height="50" relative="1" as="geometry">
            <mxPoint x="495" y="410" as="sourcePoint" />
            <mxPoint x="545" y="360" as="targetPoint" />
            <Array as="points">
              <mxPoint x="295" y="530" />
            </Array>
          </mxGeometry>
        </mxCell>
        <mxCell id="gGDKsDPiHbB0FrDxyziw-58" value="*" style="edgeLabel;html=1;align=center;verticalAlign=middle;resizable=0;points=[];" parent="gGDKsDPiHbB0FrDxyziw-33" vertex="1" connectable="0">
          <mxGeometry x="-0.5324" y="3" relative="1" as="geometry">
            <mxPoint x="5" y="11" as="offset" />
          </mxGeometry>
        </mxCell>
        <mxCell id="gGDKsDPiHbB0FrDxyziw-34" value="" style="curved=1;endArrow=classic;html=1;rounded=0;exitX=0;exitY=1;exitDx=0;exitDy=0;entryX=0.182;entryY=0.095;entryDx=0;entryDy=0;entryPerimeter=0;" parent="1" source="gGDKsDPiHbB0FrDxyziw-20" target="gGDKsDPiHbB0FrDxyziw-24" edge="1">
          <mxGeometry width="50" height="50" relative="1" as="geometry">
            <mxPoint x="475" y="510" as="sourcePoint" />
            <mxPoint x="525" y="460" as="targetPoint" />
            <Array as="points">
              <mxPoint x="315" y="520" />
            </Array>
          </mxGeometry>
        </mxCell>
        <mxCell id="gGDKsDPiHbB0FrDxyziw-57" value="*" style="edgeLabel;html=1;align=center;verticalAlign=middle;resizable=0;points=[];" parent="gGDKsDPiHbB0FrDxyziw-34" vertex="1" connectable="0">
          <mxGeometry x="-0.4636" y="2" relative="1" as="geometry">
            <mxPoint x="-5" y="13" as="offset" />
          </mxGeometry>
        </mxCell>
        <mxCell id="gGDKsDPiHbB0FrDxyziw-35" value="" style="curved=1;endArrow=classic;html=1;rounded=0;exitX=0;exitY=1;exitDx=0;exitDy=0;entryX=0.409;entryY=0.015;entryDx=0;entryDy=0;entryPerimeter=0;" parent="1" source="gGDKsDPiHbB0FrDxyziw-19" target="gGDKsDPiHbB0FrDxyziw-24" edge="1">
          <mxGeometry width="50" height="50" relative="1" as="geometry">
            <mxPoint x="475" y="510" as="sourcePoint" />
            <mxPoint x="335" y="550" as="targetPoint" />
            <Array as="points">
              <mxPoint x="445" y="500" />
              <mxPoint x="335" y="530" />
            </Array>
          </mxGeometry>
        </mxCell>
        <mxCell id="gGDKsDPiHbB0FrDxyziw-56" value="*" style="edgeLabel;html=1;align=center;verticalAlign=middle;resizable=0;points=[];" parent="gGDKsDPiHbB0FrDxyziw-35" vertex="1" connectable="0">
          <mxGeometry x="-0.732" y="-2" relative="1" as="geometry">
            <mxPoint x="-5" y="11" as="offset" />
          </mxGeometry>
        </mxCell>
        <mxCell id="gGDKsDPiHbB0FrDxyziw-36" value="" style="curved=1;endArrow=classic;html=1;rounded=0;exitX=0;exitY=1;exitDx=0;exitDy=0;entryX=0.5;entryY=0;entryDx=0;entryDy=0;" parent="1" source="gGDKsDPiHbB0FrDxyziw-18" target="gGDKsDPiHbB0FrDxyziw-24" edge="1">
          <mxGeometry width="50" height="50" relative="1" as="geometry">
            <mxPoint x="465" y="490" as="sourcePoint" />
            <mxPoint x="515" y="440" as="targetPoint" />
            <Array as="points">
              <mxPoint x="535" y="520" />
              <mxPoint x="375" y="530" />
            </Array>
          </mxGeometry>
        </mxCell>
        <mxCell id="gGDKsDPiHbB0FrDxyziw-55" value="*" style="edgeLabel;html=1;align=center;verticalAlign=middle;resizable=0;points=[];" parent="gGDKsDPiHbB0FrDxyziw-36" vertex="1" connectable="0">
          <mxGeometry x="-0.2171" y="-3" relative="1" as="geometry">
            <mxPoint x="2" y="9" as="offset" />
          </mxGeometry>
        </mxCell>
        <mxCell id="gGDKsDPiHbB0FrDxyziw-37" value="" style="curved=1;endArrow=classic;html=1;rounded=0;exitX=0.5;exitY=1;exitDx=0;exitDy=0;entryX=1;entryY=0;entryDx=0;entryDy=0;" parent="1" source="gGDKsDPiHbB0FrDxyziw-17" target="gGDKsDPiHbB0FrDxyziw-24" edge="1">
          <mxGeometry width="50" height="50" relative="1" as="geometry">
            <mxPoint x="455" y="440" as="sourcePoint" />
            <mxPoint x="505" y="390" as="targetPoint" />
            <Array as="points">
              <mxPoint x="685" y="553" />
            </Array>
          </mxGeometry>
        </mxCell>
        <mxCell id="gGDKsDPiHbB0FrDxyziw-54" value="*" style="edgeLabel;html=1;align=center;verticalAlign=middle;resizable=0;points=[];" parent="gGDKsDPiHbB0FrDxyziw-37" vertex="1" connectable="0">
          <mxGeometry x="-0.799" y="-11" relative="1" as="geometry">
            <mxPoint x="-1" y="15" as="offset" />
          </mxGeometry>
        </mxCell>
        <mxCell id="gGDKsDPiHbB0FrDxyziw-38" value="" style="curved=1;endArrow=classic;html=1;rounded=0;exitX=0.5;exitY=1;exitDx=0;exitDy=0;entryX=1;entryY=0.5;entryDx=0;entryDy=0;" parent="1" source="gGDKsDPiHbB0FrDxyziw-16" target="gGDKsDPiHbB0FrDxyziw-24" edge="1">
          <mxGeometry width="50" height="50" relative="1" as="geometry">
            <mxPoint x="625" y="420" as="sourcePoint" />
            <mxPoint x="615" y="620" as="targetPoint" />
            <Array as="points">
              <mxPoint x="765" y="580" />
            </Array>
          </mxGeometry>
        </mxCell>
        <mxCell id="gGDKsDPiHbB0FrDxyziw-53" value="*" style="edgeLabel;html=1;align=center;verticalAlign=middle;resizable=0;points=[];" parent="gGDKsDPiHbB0FrDxyziw-38" vertex="1" connectable="0">
          <mxGeometry x="-0.5817" y="-50" relative="1" as="geometry">
            <mxPoint x="7" y="3" as="offset" />
          </mxGeometry>
        </mxCell>
        <mxCell id="gGDKsDPiHbB0FrDxyziw-39" value="" style="curved=1;endArrow=classic;html=1;rounded=0;exitX=0.5;exitY=1;exitDx=0;exitDy=0;entryX=1;entryY=1;entryDx=0;entryDy=0;" parent="1" source="gGDKsDPiHbB0FrDxyziw-15" target="gGDKsDPiHbB0FrDxyziw-24" edge="1">
          <mxGeometry width="50" height="50" relative="1" as="geometry">
            <mxPoint x="475" y="360" as="sourcePoint" />
            <mxPoint x="525" y="310" as="targetPoint" />
            <Array as="points">
              <mxPoint x="795" y="630" />
            </Array>
          </mxGeometry>
        </mxCell>
        <mxCell id="gGDKsDPiHbB0FrDxyziw-52" value="*" style="edgeLabel;html=1;align=center;verticalAlign=middle;resizable=0;points=[];" parent="gGDKsDPiHbB0FrDxyziw-39" vertex="1" connectable="0">
          <mxGeometry x="-0.4596" y="-59" relative="1" as="geometry">
            <mxPoint y="12" as="offset" />
          </mxGeometry>
        </mxCell>
        <mxCell id="gGDKsDPiHbB0FrDxyziw-40" value="" style="curved=1;endArrow=classic;html=1;rounded=0;exitX=0.5;exitY=1;exitDx=0;exitDy=0;entryX=0;entryY=0.5;entryDx=0;entryDy=0;" parent="1" source="gGDKsDPiHbB0FrDxyziw-2" target="gGDKsDPiHbB0FrDxyziw-24" edge="1">
          <mxGeometry width="50" height="50" relative="1" as="geometry">
            <mxPoint x="535" y="430" as="sourcePoint" />
            <mxPoint x="255" y="580" as="targetPoint" />
            <Array as="points">
              <mxPoint x="235" y="520" />
            </Array>
          </mxGeometry>
        </mxCell>
        <mxCell id="gGDKsDPiHbB0FrDxyziw-50" value="*" style="edgeLabel;html=1;align=center;verticalAlign=middle;resizable=0;points=[];" parent="gGDKsDPiHbB0FrDxyziw-40" vertex="1" connectable="0">
          <mxGeometry x="-0.7111" relative="1" as="geometry">
            <mxPoint x="4" y="6" as="offset" />
          </mxGeometry>
        </mxCell>
        <mxCell id="gGDKsDPiHbB0FrDxyziw-41" value="" style="curved=1;endArrow=classic;html=1;rounded=0;exitX=0.5;exitY=1;exitDx=0;exitDy=0;entryX=0;entryY=1;entryDx=0;entryDy=0;" parent="1" source="gGDKsDPiHbB0FrDxyziw-3" target="gGDKsDPiHbB0FrDxyziw-24" edge="1">
          <mxGeometry width="50" height="50" relative="1" as="geometry">
            <mxPoint x="415" y="380" as="sourcePoint" />
            <mxPoint x="325" y="570" as="targetPoint" />
            <Array as="points">
              <mxPoint x="115" y="520" />
            </Array>
          </mxGeometry>
        </mxCell>
        <mxCell id="gGDKsDPiHbB0FrDxyziw-51" value="*" style="edgeLabel;html=1;align=center;verticalAlign=middle;resizable=0;points=[];" parent="gGDKsDPiHbB0FrDxyziw-41" vertex="1" connectable="0">
          <mxGeometry x="-0.4899" y="20" relative="1" as="geometry">
            <mxPoint x="-5" y="9" as="offset" />
          </mxGeometry>
        </mxCell>
        <mxCell id="gGDKsDPiHbB0FrDxyziw-42" value="" style="curved=1;endArrow=classic;html=1;rounded=0;exitX=0.5;exitY=1;exitDx=0;exitDy=0;entryX=0;entryY=0;entryDx=0;entryDy=0;" parent="1" source="gGDKsDPiHbB0FrDxyziw-24" target="gGDKsDPiHbB0FrDxyziw-1" edge="1">
          <mxGeometry width="50" height="50" relative="1" as="geometry">
            <mxPoint x="185" y="330" as="sourcePoint" />
            <mxPoint x="235" y="280" as="targetPoint" />
            <Array as="points">
              <mxPoint x="335" y="600" />
              <mxPoint x="115" y="550" />
              <mxPoint x="45" y="340" />
              <mxPoint x="125" y="100" />
            </Array>
          </mxGeometry>
        </mxCell>
        <mxCell id="gGDKsDPiHbB0FrDxyziw-59" value="*" style="edgeLabel;html=1;align=center;verticalAlign=middle;resizable=0;points=[];" parent="gGDKsDPiHbB0FrDxyziw-42" vertex="1" connectable="0">
          <mxGeometry x="-0.0646" y="-7" relative="1" as="geometry">
            <mxPoint x="2" y="-2" as="offset" />
          </mxGeometry>
        </mxCell>
        <mxCell id="lXNL300oP8eXBaeJE5PW-1" value="NOP" style="ellipse;whiteSpace=wrap;html=1;aspect=fixed;" parent="1" vertex="1">
          <mxGeometry x="300" y="105" width="70" height="70" as="geometry" />
        </mxCell>
        <mxCell id="Xfvo9Y0higD9TzJNR9Zv-1" value="" style="curved=1;endArrow=classic;html=1;rounded=0;exitX=0.778;exitY=0.088;exitDx=0;exitDy=0;entryX=0.221;entryY=0.079;entryDx=0;entryDy=0;entryPerimeter=0;exitPerimeter=0;" edge="1" parent="1" source="gGDKsDPiHbB0FrDxyziw-1" target="gGDKsDPiHbB0FrDxyziw-1">
          <mxGeometry width="50" height="50" relative="1" as="geometry">
            <mxPoint x="285" y="190" as="sourcePoint" />
            <mxPoint x="335" y="140" as="targetPoint" />
            <Array as="points">
              <mxPoint x="385" y="70" />
              <mxPoint x="295" y="70" />
            </Array>
          </mxGeometry>
        </mxCell>
        <mxCell id="Xfvo9Y0higD9TzJNR9Zv-2" value="opcode==NOP / nop=1" style="edgeLabel;html=1;align=center;verticalAlign=middle;resizable=0;points=[];" vertex="1" connectable="0" parent="Xfvo9Y0higD9TzJNR9Zv-1">
          <mxGeometry x="0.056" y="-1" relative="1" as="geometry">
            <mxPoint y="-8" as="offset" />
          </mxGeometry>
        </mxCell>
      </root>
    </mxGraphModel>
  </diagram>
</mxfile>
